<svg xmlns="http://www.w3.org/2000/svg" width="14" height="16">
                    <path d="M2.68 12a.67.67 0 0 0 .67.667h.671V15c0 .553.449 1 1.005 1 .556 0 1.005-.447 1.005-1v-2.333h1.34V15c0 .553.45 1 1.006 1s1.005-.447 1.005-1v-2.333h.67c.369 0 .67-.3.67-.667V5.334h-8.04V12zM1.006 5.334C.45 5.334 0 5.78 0 6.334V11a1 1 0 0 0 1.005 1 1 1 0 0 0 1.005-1V6.334c0-.553-.449-1-1.005-1zm11.393 0c-.556 0-1.005.447-1.005 1V11a1 1 0 0 0 1.005 1 1 1 0 0 0 1.005-1V6.334c0-.553-.449-1-1.005-1zM9.068 1.44l.874-.87a.33.33 0 0 0 0-.47.335.335 0 0 0-.473 0l-.991.983a4.012 4.012 0 0 0-3.562.003L3.92.097a.335.335 0 0 0-.472 0 .33.33 0 0 0 0 .47l.878.874A3.998 3.998 0 0 0 2.68 4.667h8.042a3.98 3.98 0 0 0-1.656-3.226zm-.691 1.892c.185 0 .335-.15.335-.333a.334.334 0 0 0-.335-.333.334.334 0 0 0-.335.333c0 .184.15.333.335.333zm-3.35 0c.184 0 .334-.15.334-.333a.334.334 0 0 0-.335-.333.334.334 0 0 0-.335.333c0 .184.15.333.335.333z"></path>
                  </svg>